<svg width="15" height="16" viewBox="0 0 15 16" fill="none" xmlns="http://www.w3.org/2000/svg">
<path d="M13.9324 9.03774C13.9316 8.96209 13.8966 8.88982 13.8352 8.83692C13.7109 8.72917 13.5113 8.72917 13.387 8.83692L7.87384 13.8278L2.35857 8.84249C2.23604 8.73318 2.03642 8.7307 1.91042 8.83692C1.78767 8.94686 1.78767 9.12304 1.91042 9.23299L7.65188 14.4209C7.71128 14.4754 7.79335 14.5062 7.87913 14.5062C7.96491 14.5062 8.04698 14.4754 8.10638 14.4209L13.8415 9.23299C13.8989 9.18045 13.9315 9.11063 13.9324 9.03774Z" fill="#2D2D2D" stroke="#2D2D2D" stroke-width="0.5"/>
<path d="M13.8745 1.67884C13.8737 1.60457 13.8393 1.53362 13.779 1.48168C13.657 1.3759 13.461 1.3759 13.339 1.48168L7.92645 6.38148L2.5118 1.48716C2.39151 1.37984 2.19553 1.3774 2.07182 1.48168C1.95132 1.58962 1.95132 1.76258 2.07182 1.87053L7.70853 6.96383C7.76685 7.01728 7.84742 7.04749 7.93163 7.04749C8.01585 7.04749 8.09642 7.01728 8.15474 6.96383L13.7852 1.87053C13.8416 1.81895 13.8735 1.7504 13.8745 1.67884Z" fill="#2D2D2D" stroke="#2D2D2D" stroke-width="0.4"/>
</svg>
