<svg width="88" height="80" viewBox="0 0 88 80" fill="none" xmlns="http://www.w3.org/2000/svg">
<path fill-rule="evenodd" clip-rule="evenodd" d="M42.8438 1.37501C43.1369 1.16168 43.4826 1.03206 43.8438 1.00001C44.3117 0.967237 44.7763 1.09997 45.1562 1.37501L58.625 11H71C72.1045 11.0001 72.9999 11.8955 73 13V21.25L87.1562 31.375C87.6835 31.7486 87.9977 32.3539 88 33V77C87.9999 78.1045 87.1045 78.9999 86 79H2C0.895476 78.9999 0.000110325 78.1045 0 77V33C0.00226405 32.3539 0.316534 31.7486 0.84375 31.375L15 21.2813V13C14.9955 11.9647 15.7818 11.0971 16.8125 11C16.875 10.9971 16.9375 10.9971 17 11H29.375L42.8438 1.37501ZM51.7812 11L44 5.43751L36.2188 11H51.7812ZM69 15V40.4063L44 54.6875L19 40.375V15H69ZM25.127 22.0811C25.4553 21.4455 26.0979 21.0334 26.8125 21C26.875 20.9971 26.9375 20.9971 27 21H61C61.7213 20.9898 62.3922 21.3688 62.7558 21.9918C63.1194 22.6147 63.1194 23.3853 62.7558 24.0083C62.3922 24.6313 61.7213 25.0102 61 25H27C26.2854 25.0336 25.6071 24.6834 25.2207 24.0813C24.8344 23.4792 24.7986 22.7167 25.127 22.0811ZM15 26.1563V38.0938L5.71875 32.7813L15 26.1563ZM82.2812 32.8125L73 26.1563V38.125L82.2812 32.8125ZM26.8125 31C26.0979 31.0334 25.4553 31.4455 25.127 32.0811C24.7986 32.7167 24.8344 33.4792 25.2207 34.0813C25.6071 34.6834 26.2854 35.0336 27 35H61C61.7213 35.0102 62.3922 34.6313 62.7558 34.0083C63.1194 33.3853 63.1194 32.6147 62.7558 31.9918C62.3922 31.3688 61.7213 30.9898 61 31H27C26.9375 30.9971 26.875 30.9971 26.8125 31ZM43 58.7188L4 36.4375V72.8125L25.6875 55.1563C26.0382 54.8615 26.4794 54.696 26.9375 54.6875C27.793 54.6736 28.5627 55.2054 28.8522 56.0105C29.1418 56.8157 28.8872 57.7159 28.2188 58.25L7.59375 75H84V36.4375L57.7188 51.4375L79.3125 68.9688C79.8979 69.4105 80.1946 70.1372 80.0857 70.8624C79.9768 71.5876 79.4798 72.1951 78.7905 72.4454C78.1012 72.6958 77.3302 72.5488 76.7812 72.0625L54 53.5625L45 58.7188C44.3812 59.076 43.6188 59.076 43 58.7188Z" fill="black"/>
</svg>
